# xmcd CD database file
# Copyright (C) 1996 Ti Kan
#
# Track frame offsets:
#  150
#  13672
#  23850
#  36660
#  49025
#  58500
#  70762
#  84622
#  97012
#  107075
#
# Disc length: 1570 seconds
#
# Revision: 1
# Processed by: cddbd v1.4b41PL1 Copyright (c) Steve Scherf et al.
# Submitted via: CDWizzard Release:4.10
#
DISCID=8306200a
DTITLE=Loretta Lynn and Patsy Cline - Loretta Lynn and Patsy Cline: On Tour
DTITLE=#2
DYEAR=1900
DGENRE=
TTITLE0=Coal Miner's Daughter - Loretta
TTITLE1=Strange - Patsy 
TTITLE2=What Kind of Girl - Loretta
TTITLE3=Crazy - Patsy
TTITLE4=Back in Baby's Arms - Patsy
TTITLE5=Heart Don't Do This to Me - Loretta
TTITLE6=You Belong to Me - Patsy
TTITLE7=Here I Am Again - Loretta
TTITLE8=You Aim't Woman Enough - Loretta
TTITLE9=Your Cheatin' Heart - Patsy
EXTD=
EXTT0=Loretta Lynn
EXTT1=Patsy Cline
EXTT2=Loretta Lynn
EXTT3=Patsy Cline
EXTT4=Patsy Cline
EXTT5=Loretta Lynn
EXTT6=Patsy Cline
EXTT7=Loretta Lynn
EXTT8=Loretta Lynn
EXTT9=Patsy Cline
PLAYORDER=
